<?xml version="1.0" encoding="UTF-8"?><svg version="1.1" width="233px" height="30px" viewBox="0 0 233.0 30.0" xmlns="http://www.w3.org/2000/svg" xmlns:xlink="http://www.w3.org/1999/xlink"><defs><clipPath id="i0"><path d="M720,0 L720,676 L0,676 L0,0 L720,0 Z"></path></clipPath><clipPath id="i1"><path d="M8.95927289,0 C10.4762207,2.88348093 13.3725029,4.52044042 16.3679947,5.60374597 C20.4723946,7.08549033 23.9367321,8.9880757 25.6761016,12.5580235 L25.669701,12.5708248 C26.4841803,14.2445878 26.9418249,16.124771 26.9418249,18.1121646 C26.9418249,22.5269948 24.6856051,26.4137735 21.2644718,28.6859948 C20.9476409,28.8972154 20.6212091,29.0940346 20.2835762,29.2764524 C20.0707555,29.3772622 19.8563346,29.4700712 19.6371132,29.55968 C18.5170041,27.764305 16.5264102,26.5705887 14.2541888,26.5705887 C11.9819674,26.5705887 9.99137345,27.764305 8.86966416,29.55968 C8.65204296,29.4700712 8.43442176,29.375662 8.22160102,29.2764524 C7.87916766,29.1164368 7.54313492,28.9420198 7.21670312,28.7564017 C2.90748327,26.3049629 0,21.6709114 0,16.3583938 C0,13.4541108 0.87048481,10.7530477 2.36183011,8.50002815 L2.37623151,8.52563064 C3.26111773,10.1001841 4.79566724,11.2586969 6.61984496,11.6363337 C6.09019336,10.377011 5.79576468,8.99127601 5.79576468,7.53833445 C5.79576468,4.59564775 6.99908191,1.93458848 8.94007102,0.016001559 L8.95927289,0 Z"></path></clipPath><clipPath id="i2"><path d="M2.43223697,0 C3.77476777,0 4.86287378,1.08970617 4.86287378,2.43063681 L4.86287378,8.06798606 C5.98778338,7.86476626 7.06468831,7.76235628 8.09038824,7.76235628 C11.0618777,7.76235628 13.3437001,8.62804062 14.9406557,10.356209 C16.5360111,12.0859775 17.3344889,14.5758201 17.3344889,17.8273369 C17.3344889,19.614711 17.1008661,21.1108568 16.6336206,22.4741896 C16.1663751,23.8375225 15.6159214,24.8712232 14.9790594,25.5768919 C14.3437975,26.2825607 13.5821233,26.8570167 12.6940368,27.3002598 C11.8043501,27.743503 11.0330749,28.0171297 10.3786112,28.12274 C9.72254726,28.2267501 9.06488318,28.2795552 8.40401879,28.2795552 C5.54934067,28.2795552 3.43553472,27.6218912 2.06260096,26.3017626 C0.686466882,24.9864344 0,23.3990797 0,21.5476994 L0,2.43063681 C0,1.08970617 1.08810601,0 2.43223697,0 Z M7.91437109,11.5147219 C6.74305697,11.5147219 5.7077561,11.6251326 4.80846848,11.8475543 L4.80846848,21.9989433 C4.80846848,23.4374835 6.00698525,24.1559535 8.40401879,24.1559535 C9.92896737,24.1559535 10.9946712,23.6359028 11.6091311,22.5974016 C12.2203906,21.5589005 12.5276206,19.9363424 12.5276206,17.571312 C12.5276206,15.3246931 12.132382,13.75334 11.3435052,12.8588528 C10.5546283,11.9627655 9.41211701,11.5147219 7.91437109,11.5147219 Z"></path></clipPath><clipPath id="i3"><path d="M9.27130329,0 C12.0891778,0 14.2925925,0.734471559 15.8815473,2.20341468 C17.468902,3.67235779 18.2625793,5.73175844 18.2625793,8.3784163 L18.2625793,18.084962 C18.2625793,19.4274928 17.1744733,20.5155988 15.8319425,20.5155988 C14.4894117,20.5155988 13.4013057,19.4274928 13.4013057,18.084962 L13.4013057,7.96557608 C13.4013057,7.42472338 13.3501007,6.97347942 13.2524912,6.61024403 C13.1532815,6.2486088 12.9548622,5.86937185 12.6588333,5.47253318 C12.3628045,5.07889483 11.8779573,4.78126583 11.2058918,4.58444666 C10.5354265,4.38762748 9.67294242,4.28841782 8.61843969,4.28841782 C8.61363922,4.28841782 8.61043891,4.29001797 8.60723859,4.29001797 C7.99437888,4.29001797 7.36391746,4.32362125 6.71745447,4.38762748 C6.6838512,4.39082779 6.64704761,4.39882857 6.61344434,4.40202889 C5.62294784,4.52204058 4.86287378,5.35732196 4.86287378,6.36061971 L4.86287378,18.084962 C4.86287378,19.4274928 3.77476777,20.5155988 2.43063681,20.5155988 C1.08810601,20.5155988 0,19.4274928 0,18.084962 L0,2.21141546 C0.315230713,2.05460018 0.640062361,1.93938895 0.958493385,1.80017539 C1.02249962,1.76177165 1.07690492,1.71056666 1.14731178,1.68176385 C1.35533205,1.59215512 1.56815278,1.52814889 1.77937336,1.44494078 C2.06420111,1.33453002 2.34902886,1.22571942 2.63545677,1.12650975 C3.08030011,0.974494944 3.52834376,0.84328216 3.97798757,0.721670312 C4.2564147,0.64806314 4.53324167,0.568055345 4.81326895,0.504049109 C5.30611697,0.393638352 5.80376545,0.313630557 6.3030141,0.240023385 C6.54303748,0.204819955 6.78146071,0.156815278 7.02308425,0.129612628 C7.76555659,0.048004677 8.51442955,0 9.26970314,0 Z"></path></clipPath><clipPath id="i4"><path d="M8.8792651,0 C11.793149,0 13.999764,0.924890111 15.4959098,2.77787065 C16.9920555,4.63085118 17.7377282,6.90947318 17.7377282,9.61693697 C17.7377282,10.7322456 17.7137258,11.5531256 17.6609207,12.0843774 L4.77966568,12.0843774 C4.91087846,13.8077453 5.42292835,14.9598575 6.32541628,15.5439144 C7.2247039,16.124771 8.3928177,16.4159994 9.83135786,16.4159994 C10.756248,16.4159994 11.7259424,16.3663946 12.6332308,16.1631748 C13.4493104,15.9823571 13.7469393,15.5551155 14.5294156,16.1631748 C14.7102332,16.3023883 14.8894507,16.4496027 15.0190633,16.6384211 C16.2751857,18.4818007 13.8893532,19.9299418 12.3852067,20.2163697 C11.3435052,20.4163891 10.2521989,20.5155988 9.11288786,20.5155988 C8.23280211,20.5155988 7.4023212,20.4467921 6.62464543,20.3027781 C5.84696966,20.1603642 5.0436914,19.8627352 4.21001018,19.4098911 C3.3747288,18.9554468 2.65945911,18.3793907 2.05940065,17.6801226 C1.45774203,16.9808544 0.966494165,16.0127601 0.579256436,14.7758396 C0.193618864,13.5389191 0,12.11158 0,10.4906221 C0,7.30471169 0.71046922,4.76046381 2.12820735,2.85627828 C3.54594548,0.952092761 5.79736483,0 8.8792651,0 Z M8.76245372,3.92518243 C7.57193773,3.92518243 6.64224715,4.30761969 5.97658229,5.07089405 C5.30611697,5.83576857 4.91087846,7.07428924 4.77966568,8.78165559 L12.7836455,8.78165559 C12.655633,7.41992292 12.2507936,6.26941082 11.5707273,5.33171946 C10.8906611,4.39402811 9.95617002,3.92518243 8.76245372,3.92518243 Z"></path></clipPath><clipPath id="i5"><path d="M8.8792651,0 C11.793149,0 13.999764,0.924890111 15.4959098,2.77787065 C16.9920555,4.63085118 17.7393283,6.90947318 17.7393283,9.61693697 C17.7393283,10.7322456 17.7137258,11.5531256 17.6609207,12.0843774 L4.77966568,12.0843774 C4.91087846,13.8077453 5.42452851,14.9598575 6.32541628,15.5439144 C7.2247039,16.124771 8.3928177,16.4159994 9.83135786,16.4159994 C10.7578481,16.4159994 11.7259424,16.3663946 12.6332308,16.1631748 C13.4493104,15.9823571 13.7485395,15.5551155 14.5310157,16.1631748 C14.7102332,16.3023883 14.8910508,16.4496027 15.0190633,16.6384211 C16.2767858,18.4818007 13.8893532,19.9299418 12.3852067,20.2163697 C11.3435052,20.4163891 10.2521989,20.5155988 9.11288786,20.5155988 C8.23280211,20.5155988 7.4023212,20.4467921 6.62624559,20.3027781 C5.84856982,20.1603642 5.0436914,19.8627352 4.21161033,19.4098911 C3.37632895,18.9554468 2.65945911,18.3793907 2.05940065,17.6801226 C1.45774203,16.9808544 0.966494165,16.0127601 0.580856592,14.7758396 C0.19521902,13.5389191 0,12.11158 0,10.4906221 C0,7.30471169 0.712069376,4.76046381 2.1298075,2.85627828 C3.54754563,0.952092761 5.79896499,0 8.8792651,0 Z M8.76245372,3.92518243 C7.57193773,3.92518243 6.64224715,4.30761969 5.97658229,5.07089405 C5.30771713,5.83576857 4.91087846,7.07428924 4.77966568,8.78165559 L12.7836455,8.78165559 C12.6572332,7.41992292 12.2507936,6.26941082 11.5723275,5.33171946 C10.8922612,4.39402811 9.95617002,3.92518243 8.76245372,3.92518243 Z"></path></clipPath><clipPath id="i6"><path d="M2.43223697,0 C3.77476777,0 4.86447394,1.08810601 4.86447394,2.43063681 L4.86447394,16.9776541 C4.86447394,18.3201849 3.77476777,19.4082909 2.43223697,19.4082909 C1.08970617,19.4082909 0,18.3201849 0,16.9776541 L0,2.43063681 C0,1.08810601 1.08970617,0 2.43223697,0 Z"></path></clipPath><clipPath id="i7"><path d="M2.48984258,0 C3.8643765,0 4.97968517,1.11530866 4.97968517,2.48984258 C4.97968517,3.86597666 3.8643765,4.97968517 2.48984258,4.97968517 C1.11530866,4.97968517 0,3.86597666 0,2.48984258 C0,1.11530866 1.11530866,0 2.48984258,0 Z"></path></clipPath><clipPath id="i8"><path d="M2.43223697,0 C3.77476777,0 4.86447394,1.08810601 4.86447394,2.43223697 L4.86447394,24.5671936 C4.86447394,25.9097244 3.77476777,26.9978304 2.43223697,26.9978304 C1.08970617,26.9978304 0,25.9097244 0,24.5671936 L0,2.43223697 C0,1.08810601 1.08970617,0 2.43223697,0 Z"></path></clipPath><clipPath id="i9"><path d="M16.2326756,0 C17.9272407,0 19.0953545,1.69776541 18.4904956,3.2803196 L16.1478673,9.40251608 L12.4883108,18.9650477 C12.131476,19.8995388 11.2337885,20.5155988 10.232091,20.5155988 L8.41911431,20.5155988 C7.41741672,20.5155988 6.52132941,19.8995388 6.16289449,18.9650477 L3.59304411,12.2491934 L0.162309862,3.2803196 C-0.444149225,1.69776541 0.723964583,0 2.41852968,0 C3.46183133,0 4.38672144,0.668865167 4.71315325,1.65936167 L6.58213534,7.32391356 L9.30400053,15.5775177 L11.6002242,8.62164 L12.3394963,6.37982158 L13.8980481,1.65776151 C14.2260801,0.667265011 15.14937,0 16.1926717,0 Z"></path></clipPath><clipPath id="i10"><path d="M9.48092372,0 L1.50094624,20.5155988 L0,20.5155988 L7.95117467,0 L9.48092372,0 Z"></path></clipPath><clipPath id="i11"><path d="M1.52974904,0 L1.52974904,3.52514345 L5.13490029,3.52514345 L5.13490029,0 L6.66624949,0 L6.66624949,8.49362753 L5.13490029,8.49362753 L5.13490029,4.96688392 L1.52974904,4.96688392 L1.52974904,8.49362753 L0,8.49362753 L0,0 L1.52974904,0 Z"></path></clipPath><clipPath id="i12"><path d="M5.05489249,0 L8.43122145,8.49362753 L6.78946149,8.49362753 L6.01178572,6.44222766 L2.41783557,6.44222766 L1.64175995,8.49362753 L0,8.49362753 L3.37632895,0 L5.05489249,0 Z M4.2164108,1.734569 L2.94108655,5.06769374 L5.47733365,5.06769374 L4.2164108,1.734569 Z"></path></clipPath><clipPath id="i13"><path d="M3.17790962,0 C4.18440768,0 4.96048329,0.246424009 5.50933677,0.739272027 C6.05659009,1.2337202 6.3318169,1.93618864 6.3318169,2.84667735 C6.3318169,3.75876621 6.05659009,4.46123465 5.50773661,4.95088236 C4.96048329,5.44373038 4.18280753,5.68855423 3.17630946,5.68855423 L1.5313492,5.68855423 L1.5313492,8.49362753 L0,8.49362753 L0,0 L3.17790962,0 Z M3.06109824,1.39853626 L1.5313492,1.39853626 L1.5313492,4.31402031 L3.06109824,4.31402031 C3.73156356,4.31402031 4.19080831,4.19080831 4.434032,3.9443843 C4.67885586,3.69636013 4.8004677,3.32992443 4.8004677,2.84667735 C4.8004677,2.36823073 4.67885586,2.00819566 4.43083169,1.7633718 C4.18600784,1.52014811 3.72836325,1.39853626 3.06109824,1.39853626 Z"></path></clipPath><clipPath id="i14"><path d="M3.17790962,0 C4.18280753,0 4.96048329,0.246424009 5.50933677,0.739272027 C6.05659009,1.2337202 6.3318169,1.93618864 6.3318169,2.84667735 C6.3318169,3.75876621 6.05659009,4.46123465 5.50773661,4.95088236 C4.96048329,5.44373038 4.18120737,5.68855423 3.17630946,5.68855423 L1.5313492,5.68855423 L1.5313492,8.49362753 L0,8.49362753 L0,0 L3.17790962,0 Z M3.06109824,1.39853626 L1.5313492,1.39853626 L1.5313492,4.31402031 L3.06109824,4.31402031 C3.73156356,4.31402031 4.18920815,4.19080831 4.434032,3.9443843 C4.67885586,3.69636013 4.8004677,3.32992443 4.8004677,2.84667735 C4.8004677,2.36823073 4.67885586,2.00819566 4.43083169,1.7633718 C4.18440768,1.52014811 3.72836325,1.39853626 3.06109824,1.39853626 Z"></path></clipPath><clipPath id="i15"><path d="M1.84657991,0 L4.09799926,3.44993612 L6.33661737,0 L8.18319728,0 L4.86287378,4.85007254 L4.86287378,8.49362753 L3.33312474,8.49362753 L3.33312474,4.85007254 L0,0 L1.84657991,0 Z"></path></clipPath><clipPath id="i16"><path d="M3.96198601,0 C4.82767035,0 5.68535392,0.166416214 6.5350367,0.502448953 L6.5350367,1.93298833 C5.72695797,1.560152 4.91407877,1.37293376 4.09799926,1.37293376 C3.71716216,1.37293376 3.39073036,1.40813719 3.11870385,1.4769439 C2.84667735,1.54415044 2.58105147,1.67696338 2.32342637,1.87058225 C2.06420111,2.06580127 1.86738194,2.37143105 1.73296884,2.78587142 C1.59855575,3.2003118 1.5313492,3.72196263 1.5313492,4.35242405 C1.5313492,4.98128532 1.59855575,5.5045363 1.73296884,5.91897668 C1.86738194,6.33341706 2.06420111,6.63904684 2.32342637,6.8326657 C2.58105147,7.02788472 2.84667735,7.1590975 3.11870385,7.22630405 C3.39073036,7.29511076 3.71716216,7.33031418 4.09799926,7.33031418 C4.91407877,7.33031418 5.72695797,7.1446961 6.5350367,6.77025962 L6.5350367,8.19439837 C5.68535392,8.53523158 4.82767035,8.7048481 3.96198601,8.7048481 C3.56354719,8.7048481 3.19231102,8.67124483 2.8482775,8.60563844 C2.50424399,8.53843189 2.15220969,8.40721911 1.79217461,8.21039993 C1.43053938,8.01358075 1.12330944,7.75755581 0.868884655,7.44552541 C0.61285971,7.13189485 0.404839443,6.71265401 0.243223697,6.18620272 C0.081607951,5.65975142 0,5.04849187 0,4.35242405 C0,3.65475608 0.081607951,3.04349652 0.243223697,2.51864539 C0.404839443,1.99059394 0.61285971,1.5713531 0.868884655,1.25772254 C1.12330944,0.945692138 1.43053938,0.689667194 1.79217461,0.492848018 C2.15220969,0.297628998 2.50424399,0.164816058 2.8482775,0.0992096659 C3.19231102,0.032003118 3.56354719,0 3.96198601,0 Z"></path></clipPath><clipPath id="i17"><path d="M3.96198601,0 C4.36042483,0 4.731661,0.032003118 5.07409436,0.09760951 C5.41972804,0.164816058 5.77176234,0.296028842 6.13179741,0.492848018 C6.49343265,0.689667194 6.80226274,0.942491826 7.06148799,1.25612238 C7.32071325,1.56815278 7.53193383,1.98739363 7.69354957,2.51384492 C7.85516532,3.03869606 7.93517312,3.64995561 7.93517312,4.34602343 C7.93517312,5.03409047 7.85516532,5.64374986 7.69354957,6.17500162 C7.53193383,6.70625338 7.32071325,7.12869454 7.06148799,7.43592447 C6.80226274,7.74635472 6.49343265,7.99917935 6.13179741,8.19599853 C5.77176234,8.39441786 5.41972804,8.52563064 5.07409436,8.59283719 C4.731661,8.65844358 4.36042483,8.69204686 3.96198601,8.69204686 C3.56514735,8.69204686 3.19391118,8.65844358 2.8482775,8.59283719 C2.50424399,8.52563064 2.15380984,8.39441786 1.79217461,8.19599853 C1.43213953,7.99917935 1.12330944,7.74635472 0.868884655,7.43592447 C0.614459866,7.12869454 0.404839443,6.70625338 0.243223697,6.17500162 C0.081607951,5.64374986 0,5.03409047 0,4.34602343 C0,3.64995561 0.081607951,3.03869606 0.243223697,2.51384492 C0.404839443,1.98739363 0.614459866,1.56815278 0.868884655,1.25612238 C1.12330944,0.942491826 1.43213953,0.689667194 1.79217461,0.492848018 C2.15380984,0.296028842 2.50424399,0.164816058 2.8482775,0.09760951 C3.19391118,0.032003118 3.56514735,0 3.96198601,0 Z M3.96198601,1.34733127 C3.68035857,1.34733127 3.43233441,1.36653314 3.22271399,1.40333673 C3.01149341,1.44174047 2.79227205,1.52174826 2.56504991,1.64656042 C2.33942793,1.76977243 2.15861031,1.9377888 2.01939675,2.14900938 C1.88018318,2.36022995 1.76497196,2.64825802 1.67056276,3.01789403 C1.57775372,3.38592989 1.5313492,3.8243726 1.5313492,4.33322218 C1.5313492,4.96848407 1.59535543,5.49653552 1.72016759,5.91577637 C1.84657991,6.33341706 2.03379815,6.63904684 2.28022216,6.83586601 C2.52664617,7.03268519 2.7794708,7.16709828 3.03869606,7.23590499 C3.29792131,7.30631185 3.60515125,7.34151528 3.96198601,7.34151528 C4.25161423,7.34151528 4.50283871,7.32391356 4.71405929,7.28550982 C4.92688002,7.24870623 5.14290107,7.16869844 5.36692289,7.04708659 C5.59094472,6.92547474 5.77336249,6.75585822 5.91417621,6.53823701 C6.05498993,6.32221597 6.17340147,6.02778728 6.26461035,5.65495096 C6.35901955,5.28211463 6.40542407,4.84207176 6.40542407,4.33322218 C6.40542407,3.70436091 6.34301799,3.18110993 6.21500552,2.76346924 C6.09019336,2.34582855 5.90137496,2.03859862 5.65015049,1.84177944 C5.39892601,1.64496027 5.14610138,1.51374748 4.89167659,1.44814109 C4.6372518,1.38093454 4.32682156,1.34733127 3.96198601,1.34733127 Z"></path></clipPath><clipPath id="i18"><path d="M2.93148561,0 C4.24681376,0 5.24531105,0.360035078 5.9253773,1.08170539 C6.60544356,1.8033757 6.94627677,2.8594786 6.94627677,4.25321439 C6.94627677,5.63734924 6.60704372,6.69025182 5.92857762,7.41192214 C5.25011151,8.13359245 4.25161423,8.49362753 2.93148561,8.49362753 L0,8.49362753 L0,0 L2.93148561,0 Z M2.92988546,1.37453392 L1.52974904,1.37453392 L1.52974904,7.11909361 L2.92988546,7.11909361 C3.81157136,7.11909361 4.44683325,6.89507178 4.83567113,6.44862828 C5.22290886,6.00058463 5.41652773,5.26931338 5.41652773,4.25321439 C5.41652773,3.22911461 5.22290886,2.49304289 4.83567113,2.0465994 C4.44683325,1.59695559 3.81157136,1.37453392 2.92988546,1.37453392 Z"></path></clipPath><clipPath id="i19"><path d="M5.6533508,0 L5.6533508,1.37453392 L1.52974904,1.37453392 L1.52974904,3.52674361 L5.10449733,3.52674361 L5.10449733,4.96848407 L1.52974904,4.96848407 L1.52974904,7.11909361 L5.6533508,7.11909361 L5.6533508,8.49362753 L0,8.49362753 L0,0 L5.6533508,0 Z"></path></clipPath><clipPath id="i20"><path d="M3.26271788,0 C4.25801485,0 5.03089015,0.235222918 5.58294394,0.708869064 C6.13499773,1.18091506 6.4118247,1.85618085 6.4118247,2.73306628 C6.4118247,4.0275924 5.79096421,4.86447394 4.54604292,5.24371089 L6.7782604,8.49362753 L4.93168049,8.49362753 L2.90428296,5.49813568 L1.52974904,5.49813568 L1.52974904,8.49362753 L0,8.49362753 L0,0 L3.26271788,0 Z M3.22271399,1.44334062 L1.52974904,1.44334062 L1.52974904,4.09799926 L3.22271399,4.09799926 C3.73956434,4.09799926 4.14600394,4.00519022 4.44043263,3.82117229 C4.73486131,3.63395405 4.88207566,3.28512007 4.88207566,2.76986987 C4.88207566,2.24821904 4.73486131,1.89618474 4.44043263,1.71536713 C4.14600394,1.53294935 3.73956434,1.44334062 3.22271399,1.44334062 Z"></path></clipPath><clipPath id="i21"><path d="M3.02909512,0 C3.79236949,0 4.55244354,0.196819176 5.30931728,0.592057684 L5.30931728,2.08820345 C4.65645367,1.65776151 3.95558539,1.44174047 3.20831258,1.44174047 C2.7394669,1.44174047 2.3442284,1.52174826 2.01779659,1.68496416 C1.69296494,1.84657991 1.5313492,2.1010047 1.5313492,2.44983869 C1.5313492,2.73146612 1.67856354,2.95228764 1.97459238,3.11230323 C2.27062122,3.27071866 2.6306563,3.40513176 3.04989715,3.51554252 C3.47073815,3.62435312 3.89317931,3.76356668 4.31882078,3.92838274 C4.74286209,4.09479895 5.10449733,4.38122686 5.40052617,4.78926661 C5.69655501,5.19890652 5.84536951,5.72535782 5.84536951,6.3718208 C5.84536951,7.05508737 5.56054176,7.61194162 4.99248641,8.04558387 C4.42443107,8.47602581 3.73316372,8.69204686 2.91708421,8.69204686 C1.83857913,8.69204686 0.904088084,8.45362363 0.112010913,7.97997748 L0.112010913,6.43422688 C0.841682004,6.97827989 1.65776151,7.24870623 2.5618496,7.24870623 C3.73156356,7.24870623 4.31562047,6.92387459 4.31562047,6.27261113 C4.31562047,5.9797826 4.21001018,5.73495875 3.9987896,5.53973973 C3.78756902,5.34452071 3.52034298,5.20050668 3.19711149,5.10769764 C2.87227984,5.0148886 2.52664617,4.90447784 2.15861031,4.77806552 C1.7889743,4.65165321 1.44334062,4.5140398 1.12010913,4.36362514 C0.796877639,4.21481064 0.529651603,3.98278804 0.316830869,3.66435701 C0.10561029,3.34752615 0,2.95388779 0,2.48664227 C0,1.66416214 0.288028062,1.04330165 0.865684343,0.625660957 C1.44014031,0.208020267 2.16181062,0 3.02909512,0 Z"></path></clipPath></defs><g transform="translate(-64.0 -394.0)"><g clip-path="url(#i0)"><g transform="translate(63.99999999999994 394.0)"><g transform=""><g clip-path="url(#i1)"><polygon points="0,0 26.9418249,0 26.9418249,29.55968 0,29.55968 0,0" stroke="none" fill="#0FBCCD"></polygon></g></g><g transform="translate(36.43923023623427 1.280284736807971)"><g clip-path="url(#i2)"><polygon points="0,0 17.3344889,0 17.3344889,28.2795552 0,28.2795552 0,0" stroke="none" fill="#FFFFFF"></polygon></g></g><g transform="translate(135.4314349435942 9.043281077452775)"><g clip-path="url(#i3)"><polygon points="0,0 18.2625793,0 18.2625793,20.5155988 0,20.5155988 0,0" stroke="none" fill="#FFFFFF"></polygon></g></g><g transform="translate(56.01361734837507 9.043121061862507)"><g clip-path="url(#i4)"><polygon points="0,0 17.7377282,0 17.7377282,20.5155988 0,20.5155988 0,0" stroke="none" fill="#FFFFFF"></polygon></g></g><g transform="translate(114.72093714137259 9.043121061862507)"><g clip-path="url(#i5)"><polygon points="0,0 17.7393283,0 17.7393283,20.5155988 0,20.5155988 0,0" stroke="none" fill="#FFFFFF"></polygon></g></g><g transform="translate(85.84580386722405 10.15138903925686)"><g clip-path="url(#i6)"><polygon points="0,0 4.86447394,0 4.86447394,19.4082909 0,19.4082909 0,0" stroke="none" fill="#FFFFFF"></polygon></g></g><g transform="translate(85.78819825476933 2.56152956715664)"><g clip-path="url(#i7)"><polygon points="0,0 4.97968517,0 4.97968517,4.97968517 0,4.97968517 0,0" stroke="none" fill="#FFFFFF"></polygon></g></g><g transform="translate(76.36600025983603 2.5615295671566383)"><g clip-path="url(#i8)"><polygon points="0,0 4.86447394,0 4.86447394,26.9978304 0,26.9978304 0,0" stroke="none" fill="#FFFFFF"></polygon></g></g><g transform="translate(94.18256206072601 9.043441093042818)"><g clip-path="url(#i9)"><polygon points="-4.4408921e-16,0 18.6520797,0 18.6520797,20.5155988 -4.4408921e-16,20.5155988 -4.4408921e-16,0" stroke="none" fill="#FFFFFF"></polygon></g></g><g transform="translate(163.1923796635128 9.043921139813392)"><g clip-path="url(#i10)"><polygon points="0,0 9.48092372,0 9.48092372,20.5155988 0,20.5155988 0,0" stroke="none" fill="#0FBCCD"></polygon></g></g><g transform="translate(185.970278890501 9.021678972782183)"><g clip-path="url(#i11)"><polygon points="0,0 6.66624949,0 6.66624949,8.49362753 0,8.49362753 0,0" stroke="none" fill="#0FBCCD"></polygon></g></g><g transform="translate(195.3639941103871 9.021518957192143)"><g clip-path="url(#i12)"><polygon points="0,0 8.43122145,0 8.43122145,8.49362753 0,8.49362753 0,0" stroke="none" fill="#0FBCCD"></polygon></g></g><g transform="translate(206.50988004244 9.021999003962492)"><g clip-path="url(#i13)"><polygon points="0,0 6.3318169,0 6.3318169,8.49362753 0,8.49362753 0,0" stroke="none" fill="#0FBCCD"></polygon></g></g><g transform="translate(215.67397289045772 9.021999003962492)"><g clip-path="url(#i14)"><polygon points="0,0 6.3318169,0 6.3318169,8.49362753 0,8.49362753 0,0" stroke="none" fill="#0FBCCD"></polygon></g></g><g transform="translate(223.94981919754036 9.021518957192143)"><g clip-path="url(#i15)"><polygon points="0,0 8.18319728,0 8.18319728,8.49362753 0,8.49362753 0,0" stroke="none" fill="#0FBCCD"></polygon></g></g><g transform="translate(177.5200155901523 20.85499188012909)"><g clip-path="url(#i16)"><polygon points="0,0 6.5350367,0 6.5350367,8.7048481 0,8.7048481 0,0" stroke="none" fill="#1EB6CB"></polygon></g></g><g transform="translate(186.6087410952084 20.867953142931363)"><g clip-path="url(#i17)"><polygon points="0,0 7.93517312,0 7.93517312,8.69204686 0,8.69204686 0,0" stroke="none" fill="#1EB6CB"></polygon></g></g><g transform="translate(197.6325351319751 21.06605244353977)"><g clip-path="url(#i18)"><polygon points="0,0 6.94627677,0 6.94627677,8.49362753 0,8.49362753 0,0" stroke="none" fill="#0FBCCD"></polygon></g></g><g transform="translate(207.6170279107033 21.06589242794973)"><g clip-path="url(#i19)"><polygon points="0,0 5.6533508,0 5.6533508,8.49362753 0,8.49362753 0,0" stroke="none" fill="#0FBCCD"></polygon></g></g><g transform="translate(216.3021940973954 21.06573241235958)"><g clip-path="url(#i20)"><polygon points="0,0 6.7782604,0 6.7782604,8.49362753 0,8.49362753 0,0" stroke="none" fill="#0FBCCD"></polygon></g></g><g transform="translate(225.6843881947905 20.867473096160886)"><g clip-path="url(#i21)"><polygon points="0,0 5.84536951,0 5.84536951,8.69204686 0,8.69204686 0,0" stroke="none" fill="#0FBCCD"></polygon></g></g></g></g></g></svg>