<svg width="38" height="38" viewBox="0 0 38 38" fill="none" xmlns="http://www.w3.org/2000/svg">
<path fill-rule="evenodd" clip-rule="evenodd" d="M26.5812 33.1133C26.2597 33.3277 25.9284 33.5274 25.5857 33.7126C25.3697 33.8149 25.1521 33.9091 24.9296 34C23.7928 32.1779 21.7726 30.9664 19.4665 30.9664C17.1605 30.9664 15.1402 32.1779 14.0018 34C13.7809 33.9091 13.5601 33.8132 13.3441 33.7126C12.9965 33.5502 12.6555 33.3731 12.3242 33.1848C7.95079 30.6968 5 25.9937 5 20.6021C5 17.6545 5.88345 14.9132 7.39701 12.6266L7.41163 12.6526C8.3097 14.2506 9.8671 15.4264 11.7185 15.8097C11.1809 14.5316 10.8821 13.1252 10.8821 11.6506C10.8821 8.6641 12.1033 5.96341 14.0732 4.01624L14.0927 4C15.6323 6.92643 18.5717 8.58778 21.6118 9.68722C25.7774 11.191 29.2933 13.122 31.0586 16.7451L31.0521 16.7581C31.8787 18.4568 32.3432 20.365 32.3432 22.382C32.3432 26.8626 30.0533 30.8072 26.5812 33.1133" fill="#10BCCD"/>
</svg>
