<?xml version="1.0" encoding="UTF-8"?>
<svg width="9.0000036px" height="18px" viewBox="0 0 9.0000036 18" version="1.1" xmlns="http://www.w3.org/2000/svg" xmlns:xlink="http://www.w3.org/1999/xlink">
    <title>Path</title>
    <g id="Desktop" stroke="none" stroke-width="1" fill="none" fill-rule="evenodd">
        <g id="Tags---Elenco-tutti" transform="translate(-1080, -7024)" fill="#10BCCD">
            <g id="Group-55" transform="translate(0, 6180)">
                <g id="Group-15" transform="translate(960, 716)">
                    <g id="Group-26" transform="translate(120, 117)">
                        <g id="Group-14" transform="translate(0, 11)">
                            <path d="M5.66038048,17.6331047 L5.67280659,10.2236157 L8.25572265,10.2236157 C8.4880337,10.2236157 8.68378057,10.0429526 8.71098946,9.80295949 L8.99671848,7.29617544 C9.02921203,7.01289154 8.81625429,6.76354231 8.54145167,6.76354231 L5.65980917,6.76354231 L5.65980917,4.66664742 C5.65980917,3.71558577 5.91390161,3.06770844 7.22528426,3.06770844 L8.43975756,3.06696589 C8.69270737,3.06696589 8.89795236,2.85355621 8.89795236,2.59024698 L8.89795236,0.476718907 C8.89795236,0.213409679 8.69270737,0 8.43947191,0 L6.46057885,0 C4.04920018,0 2.39824205,1.53047561 2.39824205,4.34118652 L2.39824205,6.76324529 L0.458484087,6.76324529 C0.20460589,6.76324529 -0.00099617064,6.97776879 1.77635684e-15,7.24182057 L0.00950174634,9.74853036 C0.0103587191,10.011097 0.215318051,10.2234671 0.467839373,10.2234671 L2.37903158,10.2234671 L2.37903158,10.2233929 L2.41102523,10.2233929 L2.41102523,10.2234671 L2.39859912,17.631471 C2.39824205,17.8347077 2.55656778,17.9996287 2.752029,17.999703 L5.30680778,18 C5.50184051,18 5.66002341,17.8358216 5.66038048,17.6331047" id="Fill-1-Copy-6"></path>
                        </g>
                    </g>
                </g>
            </g>
        </g>
    </g>
</svg>