<?xml version="1.0" encoding="UTF-8"?>
<svg width="17.9427551px" height="17.8819322px" viewBox="0 0 17.9427551 17.8819322" version="1.1" xmlns="http://www.w3.org/2000/svg" xmlns:xlink="http://www.w3.org/1999/xlink">
    <title>Group 8 Copy 2</title>
    <g id="Desktop" stroke="none" stroke-width="1" fill="none" fill-rule="evenodd">
        <g id="Tags---Elenco-tutti" transform="translate(-1148, -7024.061)" fill="#10BCCD">
            <g id="Group-55" transform="translate(0, 6180)">
                <g id="Group-15" transform="translate(960, 716)">
                    <g id="Group-26" transform="translate(120, 117)">
                        <g id="Group-14" transform="translate(0, 11)">
                            <g id="Group-8-Copy-2" transform="translate(68, 0.061)">
                                <path d="M16.1376735,12.5548475 C16.1376735,14.5034237 14.5526939,16.0829695 12.597551,16.0829695 L5.34520408,16.0829695 C3.39006122,16.0829695 1.80508163,14.5034237 1.80508163,12.5548475 L1.80508163,5.32708475 C1.80508163,3.37856949 3.39006122,1.79896271 5.34520408,1.79896271 L12.597551,1.79896271 C14.5526939,1.79896271 16.1376735,3.37863051 16.1376735,5.32708475 L16.1376735,12.5548475 Z M12.5974898,0 L5.34514286,0 C2.39779592,0 0,2.3896678 0,5.32702373 L0,12.5547864 C0,15.4920814 2.39779592,17.8819322 5.34520408,17.8819322 L12.597551,17.8819322 C15.5447755,17.8819322 17.9427551,15.4922034 17.9427551,12.5547864 L17.9427551,5.32702373 C17.9427551,2.3896678 15.5448367,0 12.5974898,0 L12.5974898,0 Z" id="Fill-1"></path>
                                <path d="M8.97135918,11.7668075 C7.40529796,11.7668075 6.13568571,10.5018041 6.13568571,8.94092949 C6.13568571,7.38011593 7.40529796,6.11492949 8.97135918,6.11492949 C10.5374204,6.11492949 11.806849,7.38005492 11.806849,8.94092949 C11.806849,10.5017431 10.5374204,11.7668075 8.97135918,11.7668075 M8.97135918,4.3160278 C6.41254286,4.3160278 4.33066531,6.39084814 4.33066531,8.94092949 C4.33066531,11.4909498 6.41254286,13.5657092 8.97135918,13.5657092 C11.5301755,13.5657092 13.6118694,11.4910719 13.6118694,8.94092949 C13.6118694,6.39084814 11.5301755,4.3160278 8.97135918,4.3160278" id="Fill-4"></path>
                                <path d="M14.7327673,4.35089288 C14.7327673,4.96289288 14.2348898,5.45914373 13.6207469,5.45914373 C13.0066653,5.45914373 12.5087265,4.96289288 12.5087265,4.35089288 C12.5087265,3.73883186 13.0066653,3.24264203 13.6207469,3.24264203 C14.2350122,3.24264203 14.7327673,3.73870983 14.7327673,4.35089288" id="Fill-6"></path>
                            </g>
                        </g>
                    </g>
                </g>
            </g>
        </g>
    </g>
</svg>