<?xml version="1.0" encoding="UTF-8"?>
<svg width="16px" height="15px" viewBox="0 0 16 15" version="1.1" xmlns="http://www.w3.org/2000/svg" xmlns:xlink="http://www.w3.org/1999/xlink">
    <title>Fill 1 Copy 5</title>
    <g id="Desktop" stroke="none" stroke-width="1" fill="none" fill-rule="evenodd">
        <g id="Tags---Elenco-tutti" transform="translate(-1225, -7025)" fill="#10BCCD">
            <g id="Group-55" transform="translate(0, 6180)">
                <g id="Group-15" transform="translate(960, 716)">
                    <g id="Group-26" transform="translate(120, 117)">
                        <g id="Group-14" transform="translate(0, 11)">
                            <path d="M145.203875,16 L148.632922,16 L148.632922,5.87870169 L145.203875,5.87870169 L145.203875,16 Z M146.941037,1 C145.767666,1 145,1.75564665 145,2.7484524 C145,3.72017735 145.745412,4.49765769 146.896016,4.49765769 L146.918271,4.49765769 C148.114664,4.49765769 148.858541,3.72017735 148.858541,2.7484524 C148.835774,1.75564665 148.114664,1 146.941037,1 L146.941037,1 Z M161,10.1957504 L161,16 L157.56993,16 L157.56993,10.5847415 C157.56993,9.22502928 157.074695,8.2964698 155.832768,8.2964698 C154.885016,8.2964698 154.321993,8.9216162 154.073352,9.52693659 C153.983053,9.74326585 153.959775,10.0436674 153.959775,10.3470805 L153.959775,15.999749 L150.529449,15.999749 C150.529449,15.999749 150.575494,6.82809102 150.529449,5.87870169 L153.960031,5.87870169 L153.960031,7.31294964 C153.953124,7.32424293 153.943403,7.33528526 153.937264,7.34607663 L153.960031,7.34607663 L153.960031,7.31294964 C154.415873,6.62481178 155.228816,5.64104066 157.051417,5.64104066 C159.308115,5.64104066 161,7.08758575 161,10.1957504 L161,10.1957504 Z" id="Fill-1-Copy-5"></path>
                        </g>
                    </g>
                </g>
            </g>
        </g>
    </g>
</svg>