<?xml version="1.0" encoding="UTF-8"?>
<svg width="20px" height="14px" viewBox="0 0 20 14" version="1.1" xmlns="http://www.w3.org/2000/svg" xmlns:xlink="http://www.w3.org/1999/xlink">
    <title>Fill 1 Copy 4</title>
    <g id="Desktop" stroke="none" stroke-width="1" fill="none" fill-rule="evenodd">
        <g id="Tags---Elenco-tutti" transform="translate(-1300, -7026)" fill="#10BCCD">
            <g id="Group-55" transform="translate(0, 6180)">
                <g id="Group-15" transform="translate(960, 716)">
                    <g id="Group-26" transform="translate(120, 117)">
                        <g id="Group-14" transform="translate(0, 11)">
                            <path d="M233.037112,9.28130185 L227.568208,11.8615002 C227.422407,11.9303064 227.254012,11.8253077 227.254012,11.6656152 L227.254012,6.34383802 C227.254012,6.18178223 227.426844,6.07678358 227.572781,6.1500463 L233.041617,8.89155766 C233.204552,8.97305822 233.201616,9.20378516 233.037112,9.28130185 M235.846308,2 L224.153692,2 C221.859646,2 220,3.83967087 220,6.10892464 L220,11.8910754 C220,14.1603967 221.859714,16 224.153692,16 L235.846308,16 C238.140354,16 240,14.1603291 240,11.8910754 L240,6.10892464 C240,3.83967087 238.140286,2 235.846308,2" id="Fill-1-Copy-4"></path>
                        </g>
                    </g>
                </g>
            </g>
        </g>
    </g>
</svg>